<mxfile host="app.diagrams.net" modified="2024-02-16T15:50:07.250Z" agent="Mozilla/5.0 (Macintosh; Intel Mac OS X 10_15_7) AppleWebKit/537.36 (KHTML, like Gecko) Chrome/121.0.0.0 Safari/537.36" etag="vMleAN2Rrqk5ReBq-rl6" version="23.1.5" type="device">
  <diagram id="C5RBs43oDa-KdzZeNtuy" name="Page-1">
    <mxGraphModel dx="970" dy="785" grid="1" gridSize="10" guides="1" tooltips="1" connect="1" arrows="1" fold="1" page="1" pageScale="1" pageWidth="827" pageHeight="1169" math="0" shadow="0">
      <root>
        <mxCell id="WIyWlLk6GJQsqaUBKTNV-0" />
        <mxCell id="WIyWlLk6GJQsqaUBKTNV-1" parent="WIyWlLk6GJQsqaUBKTNV-0" />
        <mxCell id="HIMhA0tgtet6dwSYEsAD-2" value="" style="edgeStyle=none;curved=1;rounded=0;orthogonalLoop=1;jettySize=auto;html=1;fontSize=12;startSize=8;endSize=8;" parent="WIyWlLk6GJQsqaUBKTNV-1" source="HIMhA0tgtet6dwSYEsAD-0" target="HIMhA0tgtet6dwSYEsAD-1" edge="1">
          <mxGeometry relative="1" as="geometry" />
        </mxCell>
        <mxCell id="HIMhA0tgtet6dwSYEsAD-0" value="시작" style="ellipse;whiteSpace=wrap;html=1;" parent="WIyWlLk6GJQsqaUBKTNV-1" vertex="1">
          <mxGeometry x="160" y="190" width="120" height="60" as="geometry" />
        </mxCell>
        <mxCell id="HIMhA0tgtet6dwSYEsAD-6" value="" style="edgeStyle=none;curved=1;rounded=0;orthogonalLoop=1;jettySize=auto;html=1;fontSize=12;startSize=8;endSize=8;" parent="WIyWlLk6GJQsqaUBKTNV-1" source="HIMhA0tgtet6dwSYEsAD-1" target="HIMhA0tgtet6dwSYEsAD-5" edge="1">
          <mxGeometry relative="1" as="geometry" />
        </mxCell>
        <mxCell id="HIMhA0tgtet6dwSYEsAD-1" value="pepero: handleLength, body, topping, bodyLength&lt;br&gt;basic : pepero(4, &quot;***&quot;, &quot; &quot;, 10)&lt;br&gt;and : pepero(4, &quot;***&quot;, &quot;&amp;amp;&quot;, 12)&lt;br&gt;sharp : pepero(6, &quot;***&quot;, &quot;#&quot;, 12)&lt;br&gt;nude : pepero(4,&quot;|0|&quot;, &quot; &quot;, 6)" style="whiteSpace=wrap;html=1;" parent="WIyWlLk6GJQsqaUBKTNV-1" vertex="1">
          <mxGeometry x="75" y="280" width="290" height="100" as="geometry" />
        </mxCell>
        <mxCell id="HIMhA0tgtet6dwSYEsAD-3" style="edgeStyle=none;curved=1;rounded=0;orthogonalLoop=1;jettySize=auto;html=1;exitX=0.5;exitY=1;exitDx=0;exitDy=0;fontSize=12;startSize=8;endSize=8;" parent="WIyWlLk6GJQsqaUBKTNV-1" source="HIMhA0tgtet6dwSYEsAD-1" target="HIMhA0tgtet6dwSYEsAD-1" edge="1">
          <mxGeometry relative="1" as="geometry" />
        </mxCell>
        <mxCell id="HIMhA0tgtet6dwSYEsAD-8" value="" style="edgeStyle=none;curved=1;rounded=0;orthogonalLoop=1;jettySize=auto;html=1;fontSize=12;startSize=8;endSize=8;" parent="WIyWlLk6GJQsqaUBKTNV-1" source="HIMhA0tgtet6dwSYEsAD-5" edge="1">
          <mxGeometry relative="1" as="geometry">
            <mxPoint x="220" y="520" as="targetPoint" />
          </mxGeometry>
        </mxCell>
        <mxCell id="HIMhA0tgtet6dwSYEsAD-5" value="body : [&quot;\(topping)\(body)\(topping)&quot;+&quot;\n&quot;...&lt;br&gt;&quot;\(topping)\(body)\(topping)]" style="whiteSpace=wrap;html=1;" parent="WIyWlLk6GJQsqaUBKTNV-1" vertex="1">
          <mxGeometry x="75" y="420" width="290" height="60" as="geometry" />
        </mxCell>
        <mxCell id="HIMhA0tgtet6dwSYEsAD-20" value="끝" style="ellipse;whiteSpace=wrap;html=1;" parent="WIyWlLk6GJQsqaUBKTNV-1" vertex="1">
          <mxGeometry x="160" y="800" width="120" height="60" as="geometry" />
        </mxCell>
        <mxCell id="GfTvTyCUURleT22OOAv0-3" value="" style="edgeStyle=orthogonalEdgeStyle;rounded=0;orthogonalLoop=1;jettySize=auto;html=1;" edge="1" parent="WIyWlLk6GJQsqaUBKTNV-1" source="GfTvTyCUURleT22OOAv0-0" target="GfTvTyCUURleT22OOAv0-2">
          <mxGeometry relative="1" as="geometry" />
        </mxCell>
        <mxCell id="GfTvTyCUURleT22OOAv0-0" value="body 출력" style="rounded=0;whiteSpace=wrap;html=1;" vertex="1" parent="WIyWlLk6GJQsqaUBKTNV-1">
          <mxGeometry x="160" y="520" width="120" height="60" as="geometry" />
        </mxCell>
        <mxCell id="GfTvTyCUURleT22OOAv0-5" value="" style="edgeStyle=orthogonalEdgeStyle;rounded=0;orthogonalLoop=1;jettySize=auto;html=1;" edge="1" parent="WIyWlLk6GJQsqaUBKTNV-1" source="GfTvTyCUURleT22OOAv0-2" target="GfTvTyCUURleT22OOAv0-4">
          <mxGeometry relative="1" as="geometry" />
        </mxCell>
        <mxCell id="GfTvTyCUURleT22OOAv0-2" value="handle : [&quot; | |&quot;+&quot;\n&quot;...&quot; | |&quot;]" style="whiteSpace=wrap;html=1;rounded=0;" vertex="1" parent="WIyWlLk6GJQsqaUBKTNV-1">
          <mxGeometry x="125" y="610" width="190" height="60" as="geometry" />
        </mxCell>
        <mxCell id="GfTvTyCUURleT22OOAv0-6" value="" style="edgeStyle=orthogonalEdgeStyle;rounded=0;orthogonalLoop=1;jettySize=auto;html=1;" edge="1" parent="WIyWlLk6GJQsqaUBKTNV-1" source="GfTvTyCUURleT22OOAv0-4" target="HIMhA0tgtet6dwSYEsAD-20">
          <mxGeometry relative="1" as="geometry" />
        </mxCell>
        <mxCell id="GfTvTyCUURleT22OOAv0-4" value="handle 출력" style="whiteSpace=wrap;html=1;rounded=0;" vertex="1" parent="WIyWlLk6GJQsqaUBKTNV-1">
          <mxGeometry x="160" y="700" width="120" height="60" as="geometry" />
        </mxCell>
      </root>
    </mxGraphModel>
  </diagram>
</mxfile>
